<?xml version="1.0" encoding="UTF-8"?>
<svg width="27px" height="30px" viewBox="0 0 27 30" version="1.1" xmlns="http://www.w3.org/2000/svg" xmlns:xlink="http://www.w3.org/1999/xlink">
    <!-- Generator: Sketch 53.2 (72643) - https://sketchapp.com -->
    <title>icon/menu-img-face</title>
    <desc>Created with Sketch.</desc>
    <g id="报警管理" stroke="none" stroke-width="1" fill="none" fill-rule="evenodd">
        <g id="Alarm_map" transform="translate(-47.000000, -111.000000)" fill-rule="nonzero">
            <g id="menu">
                <g id="menu_face" transform="translate(0.000000, 91.000000)">
                    <g id="icon/menu-img-face" transform="translate(47.000000, 20.000000)">
                        <path d="M20.4960119,25.9185714 C20.6968155,25.2733036 20.4802976,24.5898214 19.9571726,24.1979464 L18.2020834,22.6032143 C18.1645834,22.56875 18.1226191,22.53875 18.0784226,22.5117857 C17.5987798,22.2292857 16.8238691,21.2392857 16.8231548,20.9065179 L16.8231548,19.1626786 C17.4826191,18.7272321 18.7274405,17.6983036 19.2144941,15.89375 C19.7833334,15.5092857 20.5702084,14.9397321 20.5702084,14.0808929 L20.5702084,11.9263393 C20.5702084,11.2885714 20.1572619,10.6260714 19.8208334,10.2191964 L19.8208334,8.61767857 C19.8208334,8.53 19.8298512,6.44589286 18.2327976,4.825625 C17.0397619,3.61535714 15.3048512,3.00008929 13.0752976,2.99776786 C10.8465476,3 9.11163692,3.61526786 7.91860121,4.825625 C6.32163692,6.44589286 6.33056549,8.53 6.33056549,8.60794643 L6.33056549,10.2191964 C5.99404764,10.6261607 5.58190478,11.2885714 5.58190478,11.9263393 L5.58190478,14.0808929 C5.58190478,14.9397321 6.36806549,15.5092857 6.93681549,15.89375 C7.42467264,17.6983036 8.66869049,18.7265179 9.32815478,19.1626786 L9.32815478,20.9065179 C9.32744049,21.2392857 8.55252978,22.2291964 8.07288692,22.5117857 C8.02869049,22.53875 7.98672621,22.56875 7.94922621,22.6032143 L6.19413692,24.1979464 C5.67101192,24.5899107 5.45449407,25.2733929 5.65529764,25.9185714 C5.85610121,26.5630357 6.40699407,26.9790179 7.05967264,26.9790179 L19.0915476,26.9790179 C19.7443155,26.9789286 20.2951191,26.5630357 20.4960119,25.9185714 Z" id="Shape" stroke="#FFFFFF" stroke-width="1.5" stroke-linecap="round" stroke-linejoin="round"></path>
                        <path d="M0.749375018,3.74705357 C1.1638393,3.74705357 1.49875002,3.41133929 1.49875002,2.99767857 L1.49875002,1.49883929 L2.9975893,1.49883929 C3.41205359,1.49883929 3.7469643,1.163125 3.7469643,0.749464286 C3.7469643,0.335803571 3.4119643,8.92857143e-05 2.9975893,8.92857143e-05 L0.749375018,8.92857143e-05 C0.334910732,8.92857143e-05 1.78434731e-08,0.335803571 1.78434731e-08,0.749464286 L1.78434731e-08,2.99767857 C-8.92678708e-05,3.41125 0.334910732,3.74705357 0.749375018,3.74705357 Z" id="Shape" fill="#FFFFFF"></path>
                        <path d="M25.4019345,0 L23.1537203,0 C22.739256,0 22.4043453,0.335714286 22.4043453,0.749375 C22.4043453,1.16303571 22.7393453,1.49875 23.1537203,1.49875 L24.6525595,1.49875 L24.6525595,2.99758929 C24.6525595,3.41125 24.9875595,3.74696429 25.4019345,3.74696429 C25.8163988,3.74696429 26.1513095,3.41125 26.1513095,2.99758929 L26.1513095,0.749375 C26.1513988,0.335714286 25.8163988,0 25.4019345,0 Z" id="Shape" fill="#FFFFFF"></path>
                        <path d="M25.4019345,26.2294643 C24.9874703,26.2294643 24.6525595,26.5651786 24.6525595,26.9788393 L24.6525595,28.4776786 L23.1537203,28.4776786 C22.739256,28.4776786 22.4043453,28.8133929 22.4043453,29.2270536 C22.4043453,29.6407143 22.7393453,29.9764286 23.1537203,29.9764286 L25.4019345,29.9764286 C25.8163988,29.9764286 26.1513095,29.6407143 26.1513095,29.2270536 L26.1513095,26.9788393 C26.1513988,26.5651786 25.8163988,26.2294643 25.4019345,26.2294643 Z" id="Shape" fill="#FFFFFF"></path>
                        <path d="M2.99758932,28.4776786 L1.49875003,28.4776786 L1.49875003,26.9788393 C1.49875003,26.5651786 1.16375003,26.2294643 0.749375031,26.2294643 C0.334910745,26.2294643 3.05888174e-08,26.5651786 3.05888174e-08,26.9788393 L3.05888174e-08,29.2270536 C3.05888174e-08,29.6407143 0.335000031,29.9764286 0.749375031,29.9764286 L2.99758932,29.9764286 C3.4120536,29.9764286 3.74696432,29.6407143 3.74696432,29.2270536 C3.74696432,28.8133929 3.4120536,28.4776786 2.99758932,28.4776786 Z" id="Shape" fill="#FFFFFF"></path>
                        <path d="M16.0733334,15.0701786 C16.0733334,14.6565179 15.7383334,14.3208036 15.3239584,14.3208036 L13.8251191,14.3208036 L13.8251191,12.8219643 C13.8251191,12.4083036 13.4901191,12.0725893 13.0757441,12.0725893 C12.6612798,12.0725893 12.3263691,12.4083036 12.3263691,12.8219643 L12.3263691,14.3208036 L10.8275298,14.3208036 C10.4130655,14.3208036 10.0781548,14.6565179 10.0781548,15.0701786 C10.0781548,15.4838393 10.4131548,15.8195536 10.8275298,15.8195536 L12.3263691,15.8195536 L12.3263691,17.3183929 C12.3263691,17.7320536 12.6613691,18.0677679 13.0757441,18.0677679 C13.4902084,18.0677679 13.8251191,17.7320536 13.8251191,17.3183929 L13.8251191,15.8195536 L15.3239584,15.8195536 C15.7383334,15.8196429 16.0733334,15.4839286 16.0733334,15.0701786 Z" id="Shape" fill="#FFFFFF"></path>
                    </g>
                </g>
            </g>
        </g>
    </g>
</svg>