<?xml version="1.0" encoding="UTF-8"?>
<svg width="22px" height="20px" viewBox="0 0 22 20" version="1.1" xmlns="http://www.w3.org/2000/svg" xmlns:xlink="http://www.w3.org/1999/xlink">
    <!-- Generator: Sketch 53.2 (72643) - https://sketchapp.com -->
    <title>icon/toolbar_user</title>
    <desc>Created with Sketch.</desc>
    <defs>
        <path d="M17.9204609,19.5507446 C17.6238405,18.1883131 16.5257784,17.1042073 15.1032172,16.8630337 L15.1032198,16.8630184 C13.4747901,16.5869429 12.6524224,16.0228468 12.6361167,15.17073 C13.6224992,14.5697833 14.4571668,13.5011958 14.8939087,12.2391438 C15.5192227,11.5125317 15.7483481,10.9219693 15.5812851,10.4674566 C15.4874767,10.2122409 15.3601802,10.0130409 15.1993955,9.86985664 C15.0056509,7.7089599 13.4625049,6 10.9024444,6 C10.885278,6 10.86816,6.00007419 10.8510904,6.00022224 C10.6046718,5.97245772 10.3656157,5.93672476 10.1387556,5.89799078 C10.0576479,5.88414249 9.58501818,5.82243033 9.66568638,5.86021056 C9.74635457,5.89799078 9.74635457,6.05299567 9.66568638,6.03714853 C9.52936393,6.0103682 9.45757341,5.82194332 9.26457482,5.72999765 C8.70284378,5.46238568 8.12283772,5.40966897 8.3407022,5.72999765 C8.5565519,6.04736399 8.48422589,6.43588028 8.12372416,6.89554654 C7.28871408,7.56885797 6.78493317,8.57330278 6.64007405,9.73971739 C6.39103213,9.88002327 6.2031331,10.122603 6.07637694,10.4674566 C5.89425462,10.9629398 6.18296607,11.6201056 6.94251128,12.438954 C7.38378321,13.6433373 8.20727115,14.6315177 9.16673536,15.1914616 C9.13907921,16.0185143 8.37180625,16.5712328 6.86491648,16.849617 L6.86491306,16.8495985 C5.45431139,17.1101944 4.37244875,18.1946261 4.07910528,19.550393 C1.59065373,17.533683 4.22821561e-16,14.4526001 0,11 C-7.43989126e-16,4.92486775 4.92486775,-3.26347963e-14 11,-3.37507799e-14 C17.0751322,-3.48667636e-14 22,4.92486775 22,11 C22,14.4528007 20.4091614,17.5340411 17.9204609,19.5507446 Z" id="path-1"></path>
    </defs>
    <g id="报警管理" stroke="none" stroke-width="1" fill="none" fill-rule="evenodd">
        <g id="Alarm_map" transform="translate(-1804.000000, -36.000000)">
            <g id="topper">
                <g id="icon/toolbar_user" transform="translate(1804.000000, 36.000000)">
                    <g id="Combined-Shape">
                        <use fill="#C1C4FD" xlink:href="#path-1"></use>
                        <use fill="#FFFFFF" xlink:href="#path-1"></use>
                    </g>
                </g>
            </g>
        </g>
    </g>
</svg>